<?xml version="1.0" encoding="utf-8"?>
<!-- Generator: Adobe Illustrator 20.1.0, SVG Export Plug-In . SVG Version: 6.00 Build 0)  -->
<svg version="1.1" id="Grupo_3" xmlns="http://www.w3.org/2000/svg" xmlns:xlink="http://www.w3.org/1999/xlink" x="0px" y="0px"
	 viewBox="0 0 1025 839" style="enable-background:new 0 0 1025 839;" xml:space="preserve">
<style type="text/css">
	.st0{fill:#FFFFFF;}
</style>
<g>
	<path class="st0" d="M22.5,147.4h980.2c4.7,0,8.5,3.8,8.5,8.5V285l-8.6-9.2l-2.2,2l12.3,13.2l12.3-13.2l-2.2-2l-8.6,9.2V155.8
		c0-6.3-5.2-11.5-11.5-11.5H22.5c-4.7,0-8.5-3.8-8.5-8.5V1.5C14,0.7,13.3,0,12.5,0S11,0.7,11,1.5v134.4
		C11,142.2,16.2,147.3,22.5,147.4z"/>
	<path class="st0" d="M1012.5,304c-0.8,0-1.5,0.7-1.5,1.5v134.4c0,4.7-3.8,8.5-8.5,8.5H22.3c-6.3,0-11.5,5.1-11.5,11.5V589l-8.6-9.2
		l-2.2,2L12.3,595l12.3-13.2l-2.2-2l-8.6,9.2V459.8c0-4.7,3.8-8.5,8.5-8.5h980.2c6.3,0,11.5-5.1,11.5-11.5V305.5
		C1014,304.7,1013.3,304,1012.5,304z"/>
	<path class="st0" d="M513.2,833v-67.1c0-6.3-5.2-11.5-11.5-11.5H22.5c-4.7,0-8.5-3.8-8.5-8.5V611.5c0-0.8-0.7-1.5-1.5-1.5
		s-1.5,0.7-1.5,1.5v134.4c0,6.3,5.2,11.5,11.5,11.5h479.2c4.7,0,8.5,3.8,8.5,8.5V833l-8.6-9.2l-2.2,2l12.3,13.2l12.3-13.2l-2.2-2
		L513.2,833z"/>
</g>
</svg>
