<svg id="Grupo_3" data-name="Grupo 3" xmlns="http://www.w3.org/2000/svg" width="1025" height="839" viewBox="0 0 1025 839">
  <defs>
    <style>
      .cls-1 {
        fill: #95c8fd;
      }

      .cls-1, .cls-2 {
        fill-rule: evenodd;
      }

      .cls-2 {
        fill: #1e9fff;
      }
    </style>
  </defs>
  <path id="Forma_4_copia" data-name="Forma 4 copia" class="cls-1" d="M160.5,2081a1.5,1.5,0,0,1,1.5,1.49v134.38a8.507,8.507,0,0,0,8.5,8.49H1150.73a11.5,11.5,0,0,1,11.5,11.48v129.15l8.57-9.2,2.2,2.04L1160.73,2372l-12.27-13.17,2.2-2.04,8.57,9.2V2236.84a8.51,8.51,0,0,0-8.5-8.49H170.5a11.505,11.505,0,0,1-11.5-11.48V2082.49A1.5,1.5,0,0,1,160.5,2081Z" transform="translate(-148 -2081)"/>
  <path id="Forma_4_copia_2" data-name="Forma 4 copia 2" class="cls-2" d="M1160.5,2385a1.5,1.5,0,0,0-1.5,1.49v134.38a8.51,8.51,0,0,1-8.5,8.49H170.275a11.505,11.505,0,0,0-11.5,11.48v129.15l-8.574-9.2-2.2,2.04L160.27,2676l12.272-13.17-2.2-2.04-8.571,9.2V2540.84a8.507,8.507,0,0,1,8.5-8.49H1150.5a11.5,11.5,0,0,0,11.5-11.48V2386.49A1.5,1.5,0,0,0,1160.5,2385Z" transform="translate(-148 -2081)"/>
  <path id="Forma_4_copia_3" data-name="Forma 4 copia 3" class="cls-1" d="M160.5,2691a1.5,1.5,0,0,1,1.5,1.49v134.38a8.507,8.507,0,0,0,8.5,8.49H649.725a11.505,11.505,0,0,1,11.5,11.48v67.15l8.574-9.2,2.2,2.04L659.73,2920l-12.272-13.17,2.2-2.04,8.571,9.2v-67.15a8.507,8.507,0,0,0-8.5-8.49H170.5a11.505,11.505,0,0,1-11.5-11.48V2692.49A1.5,1.5,0,0,1,160.5,2691Z" transform="translate(-148 -2081)"/>
</svg>
