<?xml version="1.0" encoding="utf-8"?>
<!-- Generator: Adobe Illustrator 18.0.0, SVG Export Plug-In . SVG Version: 6.00 Build 0)  -->
<!DOCTYPE svg PUBLIC "-//W3C//DTD SVG 1.1//EN" "http://www.w3.org/Graphics/SVG/1.1/DTD/svg11.dtd">
<svg version="1.1" id="Capa_1" xmlns="http://www.w3.org/2000/svg" xmlns:xlink="http://www.w3.org/1999/xlink" x="0px" y="0px"
	 viewBox="0 0 236 72" enable-background="new 0 0 236 72" xml:space="preserve">
<g>
	<path fill-rule="evenodd" clip-rule="evenodd" fill="#16638A" d="M71.8,32.5c-3.3,4.8-8,9.2-12,9.2c-1.6,0-2.4-0.9-2.4-2.9
		c0-1.2,0.3-2.9,0.5-3.7c3.9-1.8,7.7-4,11.2-7.6c1.8-2.1,3.2-4.2,3.2-6.2c0-2-1.2-3.1-3.7-3.1c-3.7,0-8.1,2.4-10.8,5.5
		c-3.7,4-6.6,9.7-6.7,14.9c0,3.6,1.7,6.5,6.3,6.3c5-0.2,9.9-4,12.3-6.8c-0.2,1.2-0.5,2.3-0.5,3.2c0,3.2,1.6,5.4,4.7,6.5l0.6-0.3
		c-0.2-0.9-0.2-1.7-0.2-2.8c0.2-3.1,1.5-6.7,3.2-11.3c3.5-8.8,8.5-18.7,10.8-24.6L83,9.8c-0.7,0.2-1.3,0.8-1.5,1.5
		C79,16.6,76.3,22.5,73,30C72.6,30.8,72.3,31.6,71.8,32.5L71.8,32.5z M66.9,20.9c0.8,0,1.2,0.6,1.2,1.3c0,3.5-4.2,7.7-9.6,11
		C59.8,27.8,63.7,20.9,66.9,20.9L66.9,20.9z"/>
	<path fill-rule="evenodd" clip-rule="evenodd" fill="#16638A" d="M157.4,41.2c0.1,2.4,1.6,3.9,4.5,3.8c3,0,6.1-1.8,8.6-4.3
		c0.6,2.5,2.4,4.5,6.2,4.4c4-0.1,7.8-2.7,10.5-5.5c0,0.2,0,0.5-0.1,0.8c0.1,2.7,1.5,4.6,4.5,4.6c3.3,0,7.1-2.4,10-6.7l0.1,0.1
		c-0.2,0.9-0.6,2.7-0.6,3.8c0,3.2,1.8,5.1,4.5,5.7l0.6-0.3c-0.9-2.3,0.5-8.1,1-10c2-6.3,5.1-13.6,6.9-17.4c-0.8-0.7-2.8-1.2-4.8-1.3
		c-6.8-0.2-13.7,2.5-18.8,11.5c-0.8,1.5-1.8,3.2-2.5,5.2c-0.7,0.9-1.4,1.7-1.7,2.1c-1.7,1.7-4.4,4-7,4c-1.5,0-2.3-1-2.3-2.9
		c0.1-7.2,6.3-18,10.6-18c1.2,0,1.7,0.5,1.6,1.5c0.1,1.2-0.7,2.9-1.8,3.9l0.5,0.5c2.9-1.2,5.5-3.1,5.5-5.2c0-2.5-2.8-2.9-5.3-2.9
		c-3.2,0-7.5,1.6-10.8,5.3c-4.1,4.5-6.2,10-6.7,13.8c-1.8,2.3-4,3.8-5.4,3.8c-0.8,0-1.4-0.3-1.4-1.3c0-0.7,0.3-2.2,1.2-4.2
		c1.8-4.6,4.5-10.4,7.7-17.1c0,0-5,0.8-5.6,0.9c-0.8,0.2-1.4,0.7-1.7,1.5c-2.1,4.4-4.6,9.7-6.2,13.6
		C158.1,37.5,157.5,39.8,157.4,41.2L157.4,41.2z M204,21.7c1.6-0.7,3-0.8,4-0.5c-0.3,0.8-2.3,4.6-3.8,8.2
		c-2.3,5.4-5.9,10.8-9.2,11.8c-1,0.2-1.7-0.2-1.7-1.3C193.4,35,198.7,24.2,204,21.7L204,21.7z"/>
	<path fill-rule="evenodd" clip-rule="evenodd" fill="#16638A" d="M87.4,23.8c-3.7,4-6.6,9.7-6.7,14.9c0,3.5,1.8,6.5,6.6,6.3
		c5.1-0.2,9.8-3.2,13.7-7.4c-0.9,2.7-1.8,5-2.3,6.3c-1.5,3.7-2.7,6.7-5,8.4l0.2,0.5c6.8,0.3,9.3-4.4,12-12c2.9-7.8,5.2-14.5,7-19.1
		c2.9,0,7.1,0.1,9.5-0.3c-6.1,2.7-11.3,12.3-10.7,18.8c0.3,2.8,2,4.7,5.6,4.7c6.9,0.1,12.8-8.2,15.1-13.7c1.3-3.1,2.1-5.8,2.2-8.4
		c1.7-0.3,3.3-0.7,4-0.7c1.6-0.2,1.3,1.4,0.8,2.8c-2.8,8-7.7,19.6-7.8,19.7h5.5c2.3-5,3.8-8.1,5.6-11.4c2.3-3.9,7.4-10.5,9.3-10.5
		c0.8,0,0.9,0.5,0.8,1.2c-0.3,2.7-6.9,12.9-6.8,18c0.1,3.3,1.8,5.3,4.8,6l0.6-0.3c-0.3-0.7-0.3-1.6-0.5-2.7c0-3.3,2.8-9.2,3.8-11.5
		c1.7-3.7,4.7-8.9,4.5-11.8c0-1.4-1.2-2.7-3.6-2.7c-4.4,0-8.9,4.3-12.6,10.1l-0.1-0.1c1.5-3.3,2.7-6.6,2.7-8c-0.1-1.4-0.8-2-2.5-2
		c-1.2,0-2.8,0.5-4.4,0.9c-2.1,0.5-4.5,1.2-7,1.7c-1.5,0.1-2.1,0.3-2.1,1c0.3,8.8-5.6,19.3-9.7,19.3c-1.7,0-2.2-1.3-2.2-3
		c0-6.1,5.1-16.4,10-18c0.5-0.2,0.8-0.3,1.2-0.3l0.6-1.6c-1,0.1-3.5,0.2-4.8,0.2c-1.3,0-10.8,0-10.8,0c2.9-6.8,6.9-11.2,12.8-11.4
		c3.7-0.2,6.1,1.2,6.2,3.3c0.2,1.7-0.2,3.1-1.7,4.6l0.5,0.5c3.2-1.6,5.4-4.2,5.4-5.9c0-2.8-3.2-4.5-8.5-4.4
		c-6.6,0-14.9,1.5-20.6,13.5c-1.6,0.2-3.2,0.9-4.5,2.3l0.2,0.5c0.9-0.3,2.1-0.5,3.2-0.3c-0.7,2-2.3,6.1-3.9,10.5
		c-4.8,6.5-9.7,9.5-13.3,9.5c-2,0-2.8-1-2.8-2.9c0-1.2,0.2-2.9,0.5-3.7c3.8-1.8,7.7-4,11.1-7.6c2-2.1,3.2-4.2,3.3-6.2
		c0-2-1.3-3.1-3.8-3.1C94.5,18.2,90.2,20.7,87.4,23.8L87.4,23.8z M96.5,20.9c0.8,0,1.2,0.6,1.2,1.3c0,3.5-4.3,7.7-9.6,11
		C89.5,27.8,93.2,20.9,96.5,20.9L96.5,20.9z"/>
	<path fill-rule="evenodd" clip-rule="evenodd" fill="#16638A" d="M172.7,14.8c1.5,0,3.1-1.4,3.3-3.1c0.5-1.7-0.6-3-2.1-3
		c-1.5,0-3.1,1.4-3.5,3.1C170.3,13.5,171.2,14.8,172.7,14.8L172.7,14.8z"/>
	<path fill-rule="evenodd" clip-rule="evenodd" fill="#16638A" d="M117.9,63.6C62.6,63.4,6.5,64.1,6.5,65.1
		c0,0.7,56.1,1.4,111.5,1.5c55.3-0.1,111.6-0.8,111.6-1.5C229.5,64.1,173.3,63.4,117.9,63.6L117.9,63.6z"/>
	<path fill-rule="evenodd" clip-rule="evenodd" fill="#16638A" d="M28.6,24l0.3-0.2c-0.5-0.9-0.7-2.3-0.7-3.1
		C28.5,13.4,36.1,9.2,48,9.4c0,0,3-0.1,6.6,0c-3.8,2.2-7,5.1-9.5,10.7c-1,2.3-6.1,15.2-8.2,21.1c-2.5,6.8-4.1,9.9-6.2,11.2L31,53
		c5.8,0.3,9.1-2.7,11.3-8c2.1-5.2,4.8-13.3,6.2-16.8c4.4-11.5,6.3-16.5,9.8-18.8c4.8-0.1,9.6-0.1,9.6,0c5.3-0.2,7.5-1.5,9.1-3.6
		l-0.3-0.3c-1.3,0.6-4.2,0.7-6.6,0.8H46.5c-13.3,0-21.4,4.3-22.8,10.8C23.1,20.2,24.8,23.7,28.6,24L28.6,24z"/>
</g>
</svg>
